<svg width="512" height="213" viewBox="0 0 512 213" fill="none" xmlns="http://www.w3.org/2000/svg">
<path d="M18.7347 48.6939H51.7134V173.487C51.7134 182.673 49.9071 190.105 46.2944 195.782C42.6817 201.459 37.4949 205.614 30.734 208.246C24.0247 210.878 15.9994 212.194 6.65803 212.194C5.52261 212.194 4.4388 212.168 3.40661 212.117C2.3228 212.117 1.18738 212.091 0.000354744 212.039V186.26C0.877722 186.312 1.65187 186.337 2.3228 186.337C2.94212 186.389 3.61304 186.415 4.33558 186.415C9.6514 186.415 13.3673 185.279 15.4833 183.009C17.6509 180.789 18.7347 177.435 18.7347 172.945V48.6939ZM35.1467 33.3658C30.2953 33.3658 26.1149 31.7401 22.6055 28.4887C19.096 25.1856 17.3413 21.2375 17.3413 16.6442C17.3413 12.1025 19.096 8.20601 22.6055 4.95459C26.1149 1.65155 30.2953 3.61204e-05 35.1467 3.61204e-05C40.1012 3.61204e-05 44.3074 1.65155 47.7653 4.95459C51.2747 8.20601 53.0295 12.1025 53.0295 16.6442C53.0295 21.2375 51.2747 25.1856 47.7653 28.4887C44.3074 31.7401 40.1012 33.3658 35.1467 33.3658ZM112.039 169.848C104.452 169.848 97.6913 168.532 91.7562 165.9C85.8211 163.216 81.1246 159.268 77.6667 154.055C74.2605 148.791 72.5574 142.237 72.5574 134.392C72.5574 127.786 73.7702 122.238 76.1958 117.748C78.6215 113.258 81.9245 109.645 86.1049 106.91C90.2853 104.175 95.0334 102.11 100.349 100.717C105.717 99.3232 111.342 98.3426 117.226 97.7749C124.141 97.0524 129.715 96.3814 133.947 95.7621C138.179 95.0912 141.25 94.1106 143.16 92.8204C145.069 91.5301 146.024 89.6205 146.024 87.0917V86.6272C146.024 81.7242 144.476 77.9309 141.379 75.2472C138.334 72.5635 133.999 71.2216 128.373 71.2216C122.438 71.2216 117.716 72.5377 114.207 75.1698C110.697 77.7503 108.375 81.0017 107.239 84.924L76.7377 82.4468C78.286 75.2214 81.331 68.9766 85.8727 63.7124C90.4144 58.3966 96.2721 54.3194 103.446 51.4809C110.671 48.5907 119.032 47.1456 128.528 47.1456C135.134 47.1456 141.457 47.9198 147.495 49.4681C153.585 51.0164 158.978 53.4162 163.675 56.6677C168.423 59.9191 172.164 64.0995 174.9 69.2089C177.635 74.2666 179.003 80.3308 179.003 87.4013V167.603H147.727V151.114H146.798C144.889 154.83 142.334 158.107 139.134 160.945C135.934 163.732 132.089 165.926 127.599 167.526C123.109 169.074 117.922 169.848 112.039 169.848ZM121.483 147.088C126.335 147.088 130.618 146.133 134.334 144.224C138.05 142.263 140.966 139.63 143.082 136.327C145.198 133.024 146.256 129.283 146.256 125.102V112.484C145.224 113.155 143.805 113.774 141.998 114.342C140.244 114.858 138.257 115.348 136.037 115.813C133.818 116.225 131.599 116.612 129.38 116.974C127.161 117.283 125.148 117.567 123.341 117.825C119.471 118.393 116.09 119.296 113.2 120.535C110.31 121.773 108.065 123.451 106.465 125.567C104.865 127.631 104.065 130.212 104.065 133.308C104.065 137.798 105.691 141.23 108.942 143.604C112.245 145.927 116.426 147.088 121.483 147.088ZM248.405 169.538C239.373 169.538 231.193 167.216 223.865 162.571C216.588 157.875 210.807 150.985 206.524 141.901C202.292 132.766 200.176 121.567 200.176 108.303C200.176 94.6783 202.369 83.3499 206.756 74.3182C211.143 65.2349 216.975 58.4482 224.252 53.9581C231.58 49.4165 239.606 47.1456 248.328 47.1456C254.985 47.1456 260.533 48.2811 264.972 50.5519C269.462 52.7711 273.075 55.558 275.81 58.9127C278.597 62.2157 280.713 65.4671 282.158 68.6669H283.164V9.05757H316.066V167.603H283.551V148.559H282.158C280.61 151.862 278.416 155.139 275.578 158.391C272.791 161.59 269.152 164.248 264.662 166.364C260.224 168.48 254.805 169.538 248.405 169.538ZM258.856 143.295C264.172 143.295 268.662 141.85 272.326 138.96C276.042 136.018 278.881 131.915 280.842 126.651C282.855 121.386 283.861 115.219 283.861 108.148C283.861 101.078 282.88 94.9364 280.919 89.7238C278.958 84.5112 276.119 80.4856 272.404 77.6471C268.688 74.8085 264.172 73.3892 258.856 73.3892C253.437 73.3892 248.869 74.8601 245.154 77.8019C241.438 80.7437 238.625 84.8208 236.715 90.0334C234.806 95.246 233.851 101.284 233.851 108.148C233.851 115.064 234.806 121.18 236.715 126.496C238.677 131.76 241.489 135.889 245.154 138.882C248.869 141.824 253.437 143.295 258.856 143.295ZM397.37 169.925C385.139 169.925 374.61 167.448 365.785 162.494C357.011 157.487 350.251 150.417 345.502 141.282C340.754 132.095 338.38 121.232 338.38 108.69C338.38 96.4589 340.754 85.724 345.502 76.4858C350.251 67.2477 356.934 60.0481 365.553 54.8871C374.223 49.7261 384.391 47.1456 396.054 47.1456C403.899 47.1456 411.202 48.4101 417.963 50.939C424.775 53.4162 430.71 57.1579 435.768 62.1641C440.877 67.1703 444.851 73.4667 447.69 81.0533C450.529 88.5883 451.948 97.4136 451.948 107.529V116.587H351.541V96.1492H420.904C420.904 91.4011 419.872 87.1949 417.808 83.5306C415.743 79.8663 412.879 77.0019 409.215 74.9375C405.602 72.8215 401.396 71.7635 396.596 71.7635C391.59 71.7635 387.152 72.9248 383.281 75.2472C379.462 77.518 376.468 80.5888 374.301 84.4596C372.133 88.2787 371.024 92.5365 370.972 97.233V116.664C370.972 122.548 372.056 127.631 374.223 131.915C376.443 136.198 379.565 139.501 383.591 141.824C387.616 144.146 392.39 145.308 397.912 145.308C401.577 145.308 404.931 144.791 407.976 143.759C411.021 142.727 413.627 141.179 415.795 139.114C417.963 137.05 419.614 134.521 420.75 131.528L451.251 133.541C449.703 140.869 446.529 147.269 441.729 152.739C436.981 158.158 430.839 162.39 423.304 165.435C415.821 168.429 407.176 169.925 397.37 169.925Z" fill="white"/>
<path d="M492.745 169.616C487.636 169.616 483.249 167.809 479.585 164.197C475.972 160.532 474.166 156.146 474.166 151.036C474.166 145.978 475.972 141.643 479.585 138.031C483.249 134.418 487.636 132.612 492.745 132.612C497.7 132.612 502.035 134.418 505.751 138.031C509.467 141.643 511.325 145.978 511.325 151.036C511.325 154.443 510.448 157.565 508.693 160.403C506.99 163.19 504.745 165.435 501.958 167.139C499.171 168.79 496.1 169.616 492.745 169.616Z" fill="#24C65F"/>
</svg>
